<?xml version="1.0" encoding="UTF-8"?>
<svg xmlns="http://www.w3.org/2000/svg" viewBox="0 0 800 194" width="800" height="194" role="img">
<title>whereToken public coding-agent usage preview</title>
<desc>Coding-agent token usage through 2026-09-23. No prompts, paths, or identifiers.</desc>
<metadata id="wheretoken-snapshot-id">sha256:debe0e5a3b8f791918af06f8d8582953c2cd81534f5dc7287550df60c8a55dfe</metadata>
<text x="4.0" y="19.0" fill="#F0F3F6" font-family="-apple-system, BlinkMacSystemFont, 'Segoe UI', Helvetica, Arial, sans-serif" font-size="13.0" font-weight="600" text-anchor="start">whereToken</text>
<text x="86.0" y="19.0" fill="#9EA7B3" font-family="-apple-system, BlinkMacSystemFont, 'Segoe UI', Helvetica, Arial, sans-serif" font-size="12.0" font-weight="400" text-anchor="start">my coding-agent token usage</text>
<text x="796.0" y="19.0" fill="#9EA7B3" font-family="-apple-system, BlinkMacSystemFont, 'Segoe UI', Helvetica, Arial, sans-serif" font-size="11.0" font-weight="400" text-anchor="end">updated Sep 23</text>
<line x1="4" y1="31.5" x2="796" y2="31.5" stroke="#373E47" stroke-width="1"/>
<text x="4.0" y="65.0" fill="#F0F3F6" font-family="-apple-system, BlinkMacSystemFont, 'Segoe UI', Helvetica, Arial, sans-serif" font-size="30.0" font-weight="600" text-anchor="start">11.19B tokens</text>
<text class="month" x="28.0" y="82.0" fill="#9EA7B3" font-family="-apple-system, BlinkMacSystemFont, 'Segoe UI', Helvetica, Arial, sans-serif" font-size="8.0" font-weight="500" text-anchor="start">Sep</text>
<text class="month" x="57.0" y="82.0" fill="#9EA7B3" font-family="-apple-system, BlinkMacSystemFont, 'Segoe UI', Helvetica, Arial, sans-serif" font-size="8.0" font-weight="500" text-anchor="start">Oct</text>
<text class="month" x="115.0" y="82.0" fill="#9EA7B3" font-family="-apple-system, BlinkMacSystemFont, 'Segoe UI', Helvetica, Arial, sans-serif" font-size="8.0" font-weight="500" text-anchor="start">Nov</text>
<text class="month" x="173.0" y="82.0" fill="#9EA7B3" font-family="-apple-system, BlinkMacSystemFont, 'Segoe UI', Helvetica, Arial, sans-serif" font-size="8.0" font-weight="500" text-anchor="start">Dec</text>
<text class="month" x="245.5" y="82.0" fill="#9EA7B3" font-family="-apple-system, BlinkMacSystemFont, 'Segoe UI', Helvetica, Arial, sans-serif" font-size="8.0" font-weight="500" text-anchor="start">Jan</text>
<text class="month" x="303.5" y="82.0" fill="#9EA7B3" font-family="-apple-system, BlinkMacSystemFont, 'Segoe UI', Helvetica, Arial, sans-serif" font-size="8.0" font-weight="500" text-anchor="start">Feb</text>
<text class="month" x="361.5" y="82.0" fill="#9EA7B3" font-family="-apple-system, BlinkMacSystemFont, 'Segoe UI', Helvetica, Arial, sans-serif" font-size="8.0" font-weight="500" text-anchor="start">Mar</text>
<text class="month" x="434.0" y="82.0" fill="#9EA7B3" font-family="-apple-system, BlinkMacSystemFont, 'Segoe UI', Helvetica, Arial, sans-serif" font-size="8.0" font-weight="500" text-anchor="start">Apr</text>
<text class="month" x="492.0" y="82.0" fill="#9EA7B3" font-family="-apple-system, BlinkMacSystemFont, 'Segoe UI', Helvetica, Arial, sans-serif" font-size="8.0" font-weight="500" text-anchor="start">May</text>
<text class="month" x="550.0" y="82.0" fill="#9EA7B3" font-family="-apple-system, BlinkMacSystemFont, 'Segoe UI', Helvetica, Arial, sans-serif" font-size="8.0" font-weight="500" text-anchor="start">Jun</text>
<text class="month" x="622.5" y="82.0" fill="#9EA7B3" font-family="-apple-system, BlinkMacSystemFont, 'Segoe UI', Helvetica, Arial, sans-serif" font-size="8.0" font-weight="500" text-anchor="start">Jul</text>
<text class="month" x="680.5" y="82.0" fill="#9EA7B3" font-family="-apple-system, BlinkMacSystemFont, 'Segoe UI', Helvetica, Arial, sans-serif" font-size="8.0" font-weight="500" text-anchor="start">Aug</text>
<text class="month" x="753.0" y="82.0" fill="#9EA7B3" font-family="-apple-system, BlinkMacSystemFont, 'Segoe UI', Helvetica, Arial, sans-serif" font-size="8.0" font-weight="500" text-anchor="start">Sep</text>
<text class="weekday" x="22.0" y="98.0" fill="#9EA7B3" font-family="-apple-system, BlinkMacSystemFont, 'Segoe UI', Helvetica, Arial, sans-serif" font-size="8.0" font-weight="500" text-anchor="end">Mon</text>
<text class="weekday" x="22.0" y="127.0" fill="#9EA7B3" font-family="-apple-system, BlinkMacSystemFont, 'Segoe UI', Helvetica, Arial, sans-serif" font-size="8.0" font-weight="500" text-anchor="end">Wed</text>
<text class="weekday" x="22.0" y="156.0" fill="#9EA7B3" font-family="-apple-system, BlinkMacSystemFont, 'Segoe UI', Helvetica, Arial, sans-serif" font-size="8.0" font-weight="500" text-anchor="end">Fri</text>
<rect class="day" x="28.0" y="88.0" width="13.0" height="13.0" rx="1.5" fill="#24292F"/>
<rect class="day" x="28.0" y="102.5" width="13.0" height="13.0" rx="1.5" fill="#7A4469"/>
<rect class="day" x="28.0" y="117.0" width="13.0" height="13.0" rx="1.5" fill="#24292F"/>
<rect class="day" x="28.0" y="131.5" width="13.0" height="13.0" rx="1.5" fill="#24292F"/>
<rect class="day" x="28.0" y="146.0" width="13.0" height="13.0" rx="1.5" fill="#24292F"/>
<rect class="day" x="28.0" y="160.5" width="13.0" height="13.0" rx="1.5" fill="#7E466C"/>
<rect class="day" x="28.0" y="175.0" width="13.0" height="13.0" rx="1.5" fill="#24292F"/>
<rect class="day" x="42.5" y="88.0" width="13.0" height="13.0" rx="1.5" fill="#7B456A"/>
<rect class="day" x="42.5" y="102.5" width="13.0" height="13.0" rx="1.5" fill="#24292F"/>
<rect class="day" x="42.5" y="117.0" width="13.0" height="13.0" rx="1.5" fill="#24292F"/>
<rect class="day" x="42.5" y="131.5" width="13.0" height="13.0" rx="1.5" fill="#24292F"/>
<rect class="day" x="42.5" y="146.0" width="13.0" height="13.0" rx="1.5" fill="#24292F"/>
<rect class="day" x="42.5" y="160.5" width="13.0" height="13.0" rx="1.5" fill="#693E5B"/>
<rect class="day" x="42.5" y="175.0" width="13.0" height="13.0" rx="1.5" fill="#794468"/>
<rect class="day" x="57.0" y="88.0" width="13.0" height="13.0" rx="1.5" fill="#24292F"/>
<rect class="day" x="57.0" y="102.5" width="13.0" height="13.0" rx="1.5" fill="#7B446A"/>
<rect class="day" x="57.0" y="117.0" width="13.0" height="13.0" rx="1.5" fill="#24292F"/>
<rect class="day" x="57.0" y="131.5" width="13.0" height="13.0" rx="1.5" fill="#24292F"/>
<rect class="day" x="57.0" y="146.0" width="13.0" height="13.0" rx="1.5" fill="#794468"/>
<rect class="day" x="57.0" y="160.5" width="13.0" height="13.0" rx="1.5" fill="#24292F"/>
<rect class="day" x="57.0" y="175.0" width="13.0" height="13.0" rx="1.5" fill="#24292F"/>
<rect class="day" x="71.5" y="88.0" width="13.0" height="13.0" rx="1.5" fill="#24292F"/>
<rect class="day" x="71.5" y="102.5" width="13.0" height="13.0" rx="1.5" fill="#774366"/>
<rect class="day" x="71.5" y="117.0" width="13.0" height="13.0" rx="1.5" fill="#754265"/>
<rect class="day" x="71.5" y="131.5" width="13.0" height="13.0" rx="1.5" fill="#704161"/>
<rect class="day" x="71.5" y="146.0" width="13.0" height="13.0" rx="1.5" fill="#744265"/>
<rect class="day" x="71.5" y="160.5" width="13.0" height="13.0" rx="1.5" fill="#24292F"/>
<rect class="day" x="71.5" y="175.0" width="13.0" height="13.0" rx="1.5" fill="#24292F"/>
<rect class="day" x="86.0" y="88.0" width="13.0" height="13.0" rx="1.5" fill="#24292F"/>
<rect class="day" x="86.0" y="102.5" width="13.0" height="13.0" rx="1.5" fill="#7A4469"/>
<rect class="day" x="86.0" y="117.0" width="13.0" height="13.0" rx="1.5" fill="#24292F"/>
<rect class="day" x="86.0" y="131.5" width="13.0" height="13.0" rx="1.5" fill="#24292F"/>
<rect class="day" x="86.0" y="146.0" width="13.0" height="13.0" rx="1.5" fill="#24292F"/>
<rect class="day" x="86.0" y="160.5" width="13.0" height="13.0" rx="1.5" fill="#24292F"/>
<rect class="day" x="86.0" y="175.0" width="13.0" height="13.0" rx="1.5" fill="#24292F"/>
<rect class="day" x="100.5" y="88.0" width="13.0" height="13.0" rx="1.5" fill="#7A4469"/>
<rect class="day" x="100.5" y="102.5" width="13.0" height="13.0" rx="1.5" fill="#7C456B"/>
<rect class="day" x="100.5" y="117.0" width="13.0" height="13.0" rx="1.5" fill="#24292F"/>
<rect class="day" x="100.5" y="131.5" width="13.0" height="13.0" rx="1.5" fill="#24292F"/>
<rect class="day" x="100.5" y="146.0" width="13.0" height="13.0" rx="1.5" fill="#24292F"/>
<rect class="day" x="100.5" y="160.5" width="13.0" height="13.0" rx="1.5" fill="#24292F"/>
<rect class="day" x="100.5" y="175.0" width="13.0" height="13.0" rx="1.5" fill="#24292F"/>
<rect class="day" x="115.0" y="88.0" width="13.0" height="13.0" rx="1.5" fill="#24292F"/>
<rect class="day" x="115.0" y="102.5" width="13.0" height="13.0" rx="1.5" fill="#24292F"/>
<rect class="day" x="115.0" y="117.0" width="13.0" height="13.0" rx="1.5" fill="#24292F"/>
<rect class="day" x="115.0" y="131.5" width="13.0" height="13.0" rx="1.5" fill="#24292F"/>
<rect class="day" x="115.0" y="146.0" width="13.0" height="13.0" rx="1.5" fill="#24292F"/>
<rect class="day" x="115.0" y="160.5" width="13.0" height="13.0" rx="1.5" fill="#24292F"/>
<rect class="day" x="115.0" y="175.0" width="13.0" height="13.0" rx="1.5" fill="#24292F"/>
<rect class="day" x="129.5" y="88.0" width="13.0" height="13.0" rx="1.5" fill="#24292F"/>
<rect class="day" x="129.5" y="102.5" width="13.0" height="13.0" rx="1.5" fill="#24292F"/>
<rect class="day" x="129.5" y="117.0" width="13.0" height="13.0" rx="1.5" fill="#24292F"/>
<rect class="day" x="129.5" y="131.5" width="13.0" height="13.0" rx="1.5" fill="#24292F"/>
<rect class="day" x="129.5" y="146.0" width="13.0" height="13.0" rx="1.5" fill="#24292F"/>
<rect class="day" x="129.5" y="160.5" width="13.0" height="13.0" rx="1.5" fill="#24292F"/>
<rect class="day" x="129.5" y="175.0" width="13.0" height="13.0" rx="1.5" fill="#24292F"/>
<rect class="day" x="144.0" y="88.0" width="13.0" height="13.0" rx="1.5" fill="#24292F"/>
<rect class="day" x="144.0" y="102.5" width="13.0" height="13.0" rx="1.5" fill="#24292F"/>
<rect class="day" x="144.0" y="117.0" width="13.0" height="13.0" rx="1.5" fill="#24292F"/>
<rect class="day" x="144.0" y="131.5" width="13.0" height="13.0" rx="1.5" fill="#24292F"/>
<rect class="day" x="144.0" y="146.0" width="13.0" height="13.0" rx="1.5" fill="#24292F"/>
<rect class="day" x="144.0" y="160.5" width="13.0" height="13.0" rx="1.5" fill="#24292F"/>
<rect class="day" x="144.0" y="175.0" width="13.0" height="13.0" rx="1.5" fill="#24292F"/>
<rect class="day" x="158.5" y="88.0" width="13.0" height="13.0" rx="1.5" fill="#24292F"/>
<rect class="day" x="158.5" y="102.5" width="13.0" height="13.0" rx="1.5" fill="#24292F"/>
<rect class="day" x="158.5" y="117.0" width="13.0" height="13.0" rx="1.5" fill="#24292F"/>
<rect class="day" x="158.5" y="131.5" width="13.0" height="13.0" rx="1.5" fill="#7F466D"/>
<rect class="day" x="158.5" y="146.0" width="13.0" height="13.0" rx="1.5" fill="#7C456A"/>
<rect class="day" x="158.5" y="160.5" width="13.0" height="13.0" rx="1.5" fill="#24292F"/>
<rect class="day" x="158.5" y="175.0" width="13.0" height="13.0" rx="1.5" fill="#7F466D"/>
<rect class="day" x="173.0" y="88.0" width="13.0" height="13.0" rx="1.5" fill="#754365"/>
<rect class="day" x="173.0" y="102.5" width="13.0" height="13.0" rx="1.5" fill="#24292F"/>
<rect class="day" x="173.0" y="117.0" width="13.0" height="13.0" rx="1.5" fill="#764366"/>
<rect class="day" x="173.0" y="131.5" width="13.0" height="13.0" rx="1.5" fill="#834770"/>
<rect class="day" x="173.0" y="146.0" width="13.0" height="13.0" rx="1.5" fill="#824770"/>
<rect class="day" x="173.0" y="160.5" width="13.0" height="13.0" rx="1.5" fill="#24292F"/>
<rect class="day" x="173.0" y="175.0" width="13.0" height="13.0" rx="1.5" fill="#24292F"/>
<rect class="day" x="187.5" y="88.0" width="13.0" height="13.0" rx="1.5" fill="#894975"/>
<rect class="day" x="187.5" y="102.5" width="13.0" height="13.0" rx="1.5" fill="#7F466D"/>
<rect class="day" x="187.5" y="117.0" width="13.0" height="13.0" rx="1.5" fill="#24292F"/>
<rect class="day" x="187.5" y="131.5" width="13.0" height="13.0" rx="1.5" fill="#24292F"/>
<rect class="day" x="187.5" y="146.0" width="13.0" height="13.0" rx="1.5" fill="#774367"/>
<rect class="day" x="187.5" y="160.5" width="13.0" height="13.0" rx="1.5" fill="#704161"/>
<rect class="day" x="187.5" y="175.0" width="13.0" height="13.0" rx="1.5" fill="#24292F"/>
<rect class="day" x="202.0" y="88.0" width="13.0" height="13.0" rx="1.5" fill="#24292F"/>
<rect class="day" x="202.0" y="102.5" width="13.0" height="13.0" rx="1.5" fill="#24292F"/>
<rect class="day" x="202.0" y="117.0" width="13.0" height="13.0" rx="1.5" fill="#24292F"/>
<rect class="day" x="202.0" y="131.5" width="13.0" height="13.0" rx="1.5" fill="#24292F"/>
<rect class="day" x="202.0" y="146.0" width="13.0" height="13.0" rx="1.5" fill="#24292F"/>
<rect class="day" x="202.0" y="160.5" width="13.0" height="13.0" rx="1.5" fill="#24292F"/>
<rect class="day" x="202.0" y="175.0" width="13.0" height="13.0" rx="1.5" fill="#24292F"/>
<rect class="day" x="216.5" y="88.0" width="13.0" height="13.0" rx="1.5" fill="#24292F"/>
<rect class="day" x="216.5" y="102.5" width="13.0" height="13.0" rx="1.5" fill="#673E5A"/>
<rect class="day" x="216.5" y="117.0" width="13.0" height="13.0" rx="1.5" fill="#24292F"/>
<rect class="day" x="216.5" y="131.5" width="13.0" height="13.0" rx="1.5" fill="#24292F"/>
<rect class="day" x="216.5" y="146.0" width="13.0" height="13.0" rx="1.5" fill="#24292F"/>
<rect class="day" x="216.5" y="160.5" width="13.0" height="13.0" rx="1.5" fill="#24292F"/>
<rect class="day" x="216.5" y="175.0" width="13.0" height="13.0" rx="1.5" fill="#24292F"/>
<rect class="day" x="231.0" y="88.0" width="13.0" height="13.0" rx="1.5" fill="#6D405E"/>
<rect class="day" x="231.0" y="102.5" width="13.0" height="13.0" rx="1.5" fill="#24292F"/>
<rect class="day" x="231.0" y="117.0" width="13.0" height="13.0" rx="1.5" fill="#24292F"/>
<rect class="day" x="231.0" y="131.5" width="13.0" height="13.0" rx="1.5" fill="#24292F"/>
<rect class="day" x="231.0" y="146.0" width="13.0" height="13.0" rx="1.5" fill="#24292F"/>
<rect class="day" x="231.0" y="160.5" width="13.0" height="13.0" rx="1.5" fill="#24292F"/>
<rect class="day" x="231.0" y="175.0" width="13.0" height="13.0" rx="1.5" fill="#24292F"/>
<rect class="day" x="245.5" y="88.0" width="13.0" height="13.0" rx="1.5" fill="#24292F"/>
<rect class="day" x="245.5" y="102.5" width="13.0" height="13.0" rx="1.5" fill="#24292F"/>
<rect class="day" x="245.5" y="117.0" width="13.0" height="13.0" rx="1.5" fill="#24292F"/>
<rect class="day" x="245.5" y="131.5" width="13.0" height="13.0" rx="1.5" fill="#24292F"/>
<rect class="day" x="245.5" y="146.0" width="13.0" height="13.0" rx="1.5" fill="#24292F"/>
<rect class="day" x="245.5" y="160.5" width="13.0" height="13.0" rx="1.5" fill="#81476F"/>
<rect class="day" x="245.5" y="175.0" width="13.0" height="13.0" rx="1.5" fill="#8B4A77"/>
<rect class="day" x="260.0" y="88.0" width="13.0" height="13.0" rx="1.5" fill="#864872"/>
<rect class="day" x="260.0" y="102.5" width="13.0" height="13.0" rx="1.5" fill="#80466E"/>
<rect class="day" x="260.0" y="117.0" width="13.0" height="13.0" rx="1.5" fill="#794468"/>
<rect class="day" x="260.0" y="131.5" width="13.0" height="13.0" rx="1.5" fill="#24292F"/>
<rect class="day" x="260.0" y="146.0" width="13.0" height="13.0" rx="1.5" fill="#24292F"/>
<rect class="day" x="260.0" y="160.5" width="13.0" height="13.0" rx="1.5" fill="#24292F"/>
<rect class="day" x="260.0" y="175.0" width="13.0" height="13.0" rx="1.5" fill="#24292F"/>
<rect class="day" x="274.5" y="88.0" width="13.0" height="13.0" rx="1.5" fill="#24292F"/>
<rect class="day" x="274.5" y="102.5" width="13.0" height="13.0" rx="1.5" fill="#24292F"/>
<rect class="day" x="274.5" y="117.0" width="13.0" height="13.0" rx="1.5" fill="#24292F"/>
<rect class="day" x="274.5" y="131.5" width="13.0" height="13.0" rx="1.5" fill="#24292F"/>
<rect class="day" x="274.5" y="146.0" width="13.0" height="13.0" rx="1.5" fill="#24292F"/>
<rect class="day" x="274.5" y="160.5" width="13.0" height="13.0" rx="1.5" fill="#24292F"/>
<rect class="day" x="274.5" y="175.0" width="13.0" height="13.0" rx="1.5" fill="#24292F"/>
<rect class="day" x="289.0" y="88.0" width="13.0" height="13.0" rx="1.5" fill="#24292F"/>
<rect class="day" x="289.0" y="102.5" width="13.0" height="13.0" rx="1.5" fill="#744264"/>
<rect class="day" x="289.0" y="117.0" width="13.0" height="13.0" rx="1.5" fill="#754365"/>
<rect class="day" x="289.0" y="131.5" width="13.0" height="13.0" rx="1.5" fill="#683E5A"/>
<rect class="day" x="289.0" y="146.0" width="13.0" height="13.0" rx="1.5" fill="#24292F"/>
<rect class="day" x="289.0" y="160.5" width="13.0" height="13.0" rx="1.5" fill="#24292F"/>
<rect class="day" x="289.0" y="175.0" width="13.0" height="13.0" rx="1.5" fill="#24292F"/>
<rect class="day" x="303.5" y="88.0" width="13.0" height="13.0" rx="1.5" fill="#24292F"/>
<rect class="day" x="303.5" y="102.5" width="13.0" height="13.0" rx="1.5" fill="#24292F"/>
<rect class="day" x="303.5" y="117.0" width="13.0" height="13.0" rx="1.5" fill="#6B3F5D"/>
<rect class="day" x="303.5" y="131.5" width="13.0" height="13.0" rx="1.5" fill="#24292F"/>
<rect class="day" x="303.5" y="146.0" width="13.0" height="13.0" rx="1.5" fill="#24292F"/>
<rect class="day" x="303.5" y="160.5" width="13.0" height="13.0" rx="1.5" fill="#24292F"/>
<rect class="day" x="303.5" y="175.0" width="13.0" height="13.0" rx="1.5" fill="#24292F"/>
<rect class="day" x="318.0" y="88.0" width="13.0" height="13.0" rx="1.5" fill="#704161"/>
<rect class="day" x="318.0" y="102.5" width="13.0" height="13.0" rx="1.5" fill="#8C4A77"/>
<rect class="day" x="318.0" y="117.0" width="13.0" height="13.0" rx="1.5" fill="#7D456B"/>
<rect class="day" x="318.0" y="131.5" width="13.0" height="13.0" rx="1.5" fill="#A3528A"/>
<rect class="day" x="318.0" y="146.0" width="13.0" height="13.0" rx="1.5" fill="#9B4F84"/>
<rect class="day" x="318.0" y="160.5" width="13.0" height="13.0" rx="1.5" fill="#704160"/>
<rect class="day" x="318.0" y="175.0" width="13.0" height="13.0" rx="1.5" fill="#6F4160"/>
<rect class="day" x="332.5" y="88.0" width="13.0" height="13.0" rx="1.5" fill="#24292F"/>
<rect class="day" x="332.5" y="102.5" width="13.0" height="13.0" rx="1.5" fill="#24292F"/>
<rect class="day" x="332.5" y="117.0" width="13.0" height="13.0" rx="1.5" fill="#24292F"/>
<rect class="day" x="332.5" y="131.5" width="13.0" height="13.0" rx="1.5" fill="#24292F"/>
<rect class="day" x="332.5" y="146.0" width="13.0" height="13.0" rx="1.5" fill="#24292F"/>
<rect class="day" x="332.5" y="160.5" width="13.0" height="13.0" rx="1.5" fill="#8A4A76"/>
<rect class="day" x="332.5" y="175.0" width="13.0" height="13.0" rx="1.5" fill="#754265"/>
<rect class="day" x="347.0" y="88.0" width="13.0" height="13.0" rx="1.5" fill="#24292F"/>
<rect class="day" x="347.0" y="102.5" width="13.0" height="13.0" rx="1.5" fill="#24292F"/>
<rect class="day" x="347.0" y="117.0" width="13.0" height="13.0" rx="1.5" fill="#24292F"/>
<rect class="day" x="347.0" y="131.5" width="13.0" height="13.0" rx="1.5" fill="#24292F"/>
<rect class="day" x="347.0" y="146.0" width="13.0" height="13.0" rx="1.5" fill="#24292F"/>
<rect class="day" x="347.0" y="160.5" width="13.0" height="13.0" rx="1.5" fill="#24292F"/>
<rect class="day" x="347.0" y="175.0" width="13.0" height="13.0" rx="1.5" fill="#24292F"/>
<rect class="day" x="361.5" y="88.0" width="13.0" height="13.0" rx="1.5" fill="#6B3F5C"/>
<rect class="day" x="361.5" y="102.5" width="13.0" height="13.0" rx="1.5" fill="#24292F"/>
<rect class="day" x="361.5" y="117.0" width="13.0" height="13.0" rx="1.5" fill="#24292F"/>
<rect class="day" x="361.5" y="131.5" width="13.0" height="13.0" rx="1.5" fill="#24292F"/>
<rect class="day" x="361.5" y="146.0" width="13.0" height="13.0" rx="1.5" fill="#7B456A"/>
<rect class="day" x="361.5" y="160.5" width="13.0" height="13.0" rx="1.5" fill="#80466D"/>
<rect class="day" x="361.5" y="175.0" width="13.0" height="13.0" rx="1.5" fill="#854872"/>
<rect class="day" x="376.0" y="88.0" width="13.0" height="13.0" rx="1.5" fill="#8E4B79"/>
<rect class="day" x="376.0" y="102.5" width="13.0" height="13.0" rx="1.5" fill="#80466E"/>
<rect class="day" x="376.0" y="117.0" width="13.0" height="13.0" rx="1.5" fill="#774367"/>
<rect class="day" x="376.0" y="131.5" width="13.0" height="13.0" rx="1.5" fill="#6C3F5E"/>
<rect class="day" x="376.0" y="146.0" width="13.0" height="13.0" rx="1.5" fill="#6C3F5E"/>
<rect class="day" x="376.0" y="160.5" width="13.0" height="13.0" rx="1.5" fill="#81476F"/>
<rect class="day" x="376.0" y="175.0" width="13.0" height="13.0" rx="1.5" fill="#8C4A78"/>
<rect class="day" x="390.5" y="88.0" width="13.0" height="13.0" rx="1.5" fill="#81466E"/>
<rect class="day" x="390.5" y="102.5" width="13.0" height="13.0" rx="1.5" fill="#7E466D"/>
<rect class="day" x="390.5" y="117.0" width="13.0" height="13.0" rx="1.5" fill="#24292F"/>
<rect class="day" x="390.5" y="131.5" width="13.0" height="13.0" rx="1.5" fill="#693E5B"/>
<rect class="day" x="390.5" y="146.0" width="13.0" height="13.0" rx="1.5" fill="#693E5B"/>
<rect class="day" x="390.5" y="160.5" width="13.0" height="13.0" rx="1.5" fill="#9F5187"/>
<rect class="day" x="390.5" y="175.0" width="13.0" height="13.0" rx="1.5" fill="#844871"/>
<rect class="day" x="405.0" y="88.0" width="13.0" height="13.0" rx="1.5" fill="#974E81"/>
<rect class="day" x="405.0" y="102.5" width="13.0" height="13.0" rx="1.5" fill="#764366"/>
<rect class="day" x="405.0" y="117.0" width="13.0" height="13.0" rx="1.5" fill="#794469"/>
<rect class="day" x="405.0" y="131.5" width="13.0" height="13.0" rx="1.5" fill="#864873"/>
<rect class="day" x="405.0" y="146.0" width="13.0" height="13.0" rx="1.5" fill="#6E405F"/>
<rect class="day" x="405.0" y="160.5" width="13.0" height="13.0" rx="1.5" fill="#824770"/>
<rect class="day" x="405.0" y="175.0" width="13.0" height="13.0" rx="1.5" fill="#974E80"/>
<rect class="day" x="419.5" y="88.0" width="13.0" height="13.0" rx="1.5" fill="#82476F"/>
<rect class="day" x="419.5" y="102.5" width="13.0" height="13.0" rx="1.5" fill="#9E5086"/>
<rect class="day" x="419.5" y="117.0" width="13.0" height="13.0" rx="1.5" fill="#24292F"/>
<rect class="day" x="419.5" y="131.5" width="13.0" height="13.0" rx="1.5" fill="#8E4B79"/>
<rect class="day" x="419.5" y="146.0" width="13.0" height="13.0" rx="1.5" fill="#673E5A"/>
<rect class="day" x="419.5" y="160.5" width="13.0" height="13.0" rx="1.5" fill="#7D456C"/>
<rect class="day" x="419.5" y="175.0" width="13.0" height="13.0" rx="1.5" fill="#8A4A76"/>
<rect class="day" x="434.0" y="88.0" width="13.0" height="13.0" rx="1.5" fill="#704161"/>
<rect class="day" x="434.0" y="102.5" width="13.0" height="13.0" rx="1.5" fill="#24292F"/>
<rect class="day" x="434.0" y="117.0" width="13.0" height="13.0" rx="1.5" fill="#24292F"/>
<rect class="day" x="434.0" y="131.5" width="13.0" height="13.0" rx="1.5" fill="#24292F"/>
<rect class="day" x="434.0" y="146.0" width="13.0" height="13.0" rx="1.5" fill="#24292F"/>
<rect class="day" x="434.0" y="160.5" width="13.0" height="13.0" rx="1.5" fill="#24292F"/>
<rect class="day" x="434.0" y="175.0" width="13.0" height="13.0" rx="1.5" fill="#24292F"/>
<rect class="day" x="448.5" y="88.0" width="13.0" height="13.0" rx="1.5" fill="#734263"/>
<rect class="day" x="448.5" y="102.5" width="13.0" height="13.0" rx="1.5" fill="#6E405F"/>
<rect class="day" x="448.5" y="117.0" width="13.0" height="13.0" rx="1.5" fill="#24292F"/>
<rect class="day" x="448.5" y="131.5" width="13.0" height="13.0" rx="1.5" fill="#794468"/>
<rect class="day" x="448.5" y="146.0" width="13.0" height="13.0" rx="1.5" fill="#894975"/>
<rect class="day" x="448.5" y="160.5" width="13.0" height="13.0" rx="1.5" fill="#704161"/>
<rect class="day" x="448.5" y="175.0" width="13.0" height="13.0" rx="1.5" fill="#784468"/>
<rect class="day" x="463.0" y="88.0" width="13.0" height="13.0" rx="1.5" fill="#854872"/>
<rect class="day" x="463.0" y="102.5" width="13.0" height="13.0" rx="1.5" fill="#6A3F5C"/>
<rect class="day" x="463.0" y="117.0" width="13.0" height="13.0" rx="1.5" fill="#714162"/>
<rect class="day" x="463.0" y="131.5" width="13.0" height="13.0" rx="1.5" fill="#884975"/>
<rect class="day" x="463.0" y="146.0" width="13.0" height="13.0" rx="1.5" fill="#724162"/>
<rect class="day" x="463.0" y="160.5" width="13.0" height="13.0" rx="1.5" fill="#24292F"/>
<rect class="day" x="463.0" y="175.0" width="13.0" height="13.0" rx="1.5" fill="#754365"/>
<rect class="day" x="477.5" y="88.0" width="13.0" height="13.0" rx="1.5" fill="#6D405E"/>
<rect class="day" x="477.5" y="102.5" width="13.0" height="13.0" rx="1.5" fill="#6D405E"/>
<rect class="day" x="477.5" y="117.0" width="13.0" height="13.0" rx="1.5" fill="#944D7E"/>
<rect class="day" x="477.5" y="131.5" width="13.0" height="13.0" rx="1.5" fill="#964E80"/>
<rect class="day" x="477.5" y="146.0" width="13.0" height="13.0" rx="1.5" fill="#24292F"/>
<rect class="day" x="477.5" y="160.5" width="13.0" height="13.0" rx="1.5" fill="#24292F"/>
<rect class="day" x="477.5" y="175.0" width="13.0" height="13.0" rx="1.5" fill="#24292F"/>
<rect class="day" x="492.0" y="88.0" width="13.0" height="13.0" rx="1.5" fill="#24292F"/>
<rect class="day" x="492.0" y="102.5" width="13.0" height="13.0" rx="1.5" fill="#24292F"/>
<rect class="day" x="492.0" y="117.0" width="13.0" height="13.0" rx="1.5" fill="#24292F"/>
<rect class="day" x="492.0" y="131.5" width="13.0" height="13.0" rx="1.5" fill="#834770"/>
<rect class="day" x="492.0" y="146.0" width="13.0" height="13.0" rx="1.5" fill="#24292F"/>
<rect class="day" x="492.0" y="160.5" width="13.0" height="13.0" rx="1.5" fill="#24292F"/>
<rect class="day" x="492.0" y="175.0" width="13.0" height="13.0" rx="1.5" fill="#24292F"/>
<rect class="day" x="506.5" y="88.0" width="13.0" height="13.0" rx="1.5" fill="#24292F"/>
<rect class="day" x="506.5" y="102.5" width="13.0" height="13.0" rx="1.5" fill="#24292F"/>
<rect class="day" x="506.5" y="117.0" width="13.0" height="13.0" rx="1.5" fill="#24292F"/>
<rect class="day" x="506.5" y="131.5" width="13.0" height="13.0" rx="1.5" fill="#24292F"/>
<rect class="day" x="506.5" y="146.0" width="13.0" height="13.0" rx="1.5" fill="#24292F"/>
<rect class="day" x="506.5" y="160.5" width="13.0" height="13.0" rx="1.5" fill="#24292F"/>
<rect class="day" x="506.5" y="175.0" width="13.0" height="13.0" rx="1.5" fill="#24292F"/>
<rect class="day" x="521.0" y="88.0" width="13.0" height="13.0" rx="1.5" fill="#24292F"/>
<rect class="day" x="521.0" y="102.5" width="13.0" height="13.0" rx="1.5" fill="#24292F"/>
<rect class="day" x="521.0" y="117.0" width="13.0" height="13.0" rx="1.5" fill="#24292F"/>
<rect class="day" x="521.0" y="131.5" width="13.0" height="13.0" rx="1.5" fill="#24292F"/>
<rect class="day" x="521.0" y="146.0" width="13.0" height="13.0" rx="1.5" fill="#24292F"/>
<rect class="day" x="521.0" y="160.5" width="13.0" height="13.0" rx="1.5" fill="#24292F"/>
<rect class="day" x="521.0" y="175.0" width="13.0" height="13.0" rx="1.5" fill="#24292F"/>
<rect class="day" x="535.5" y="88.0" width="13.0" height="13.0" rx="1.5" fill="#24292F"/>
<rect class="day" x="535.5" y="102.5" width="13.0" height="13.0" rx="1.5" fill="#24292F"/>
<rect class="day" x="535.5" y="117.0" width="13.0" height="13.0" rx="1.5" fill="#7C456B"/>
<rect class="day" x="535.5" y="131.5" width="13.0" height="13.0" rx="1.5" fill="#A8558F"/>
<rect class="day" x="535.5" y="146.0" width="13.0" height="13.0" rx="1.5" fill="#964E80"/>
<rect class="day" x="535.5" y="160.5" width="13.0" height="13.0" rx="1.5" fill="#9C5085"/>
<rect class="day" x="535.5" y="175.0" width="13.0" height="13.0" rx="1.5" fill="#24292F"/>
<rect class="day" x="550.0" y="88.0" width="13.0" height="13.0" rx="1.5" fill="#24292F"/>
<rect class="day" x="550.0" y="102.5" width="13.0" height="13.0" rx="1.5" fill="#724263"/>
<rect class="day" x="550.0" y="117.0" width="13.0" height="13.0" rx="1.5" fill="#6D405E"/>
<rect class="day" x="550.0" y="131.5" width="13.0" height="13.0" rx="1.5" fill="#693E5B"/>
<rect class="day" x="550.0" y="146.0" width="13.0" height="13.0" rx="1.5" fill="#24292F"/>
<rect class="day" x="550.0" y="160.5" width="13.0" height="13.0" rx="1.5" fill="#24292F"/>
<rect class="day" x="550.0" y="175.0" width="13.0" height="13.0" rx="1.5" fill="#24292F"/>
<rect class="day" x="564.5" y="88.0" width="13.0" height="13.0" rx="1.5" fill="#24292F"/>
<rect class="day" x="564.5" y="102.5" width="13.0" height="13.0" rx="1.5" fill="#884974"/>
<rect class="day" x="564.5" y="117.0" width="13.0" height="13.0" rx="1.5" fill="#954D7F"/>
<rect class="day" x="564.5" y="131.5" width="13.0" height="13.0" rx="1.5" fill="#24292F"/>
<rect class="day" x="564.5" y="146.0" width="13.0" height="13.0" rx="1.5" fill="#24292F"/>
<rect class="day" x="564.5" y="160.5" width="13.0" height="13.0" rx="1.5" fill="#24292F"/>
<rect class="day" x="564.5" y="175.0" width="13.0" height="13.0" rx="1.5" fill="#24292F"/>
<rect class="day" x="579.0" y="88.0" width="13.0" height="13.0" rx="1.5" fill="#24292F"/>
<rect class="day" x="579.0" y="102.5" width="13.0" height="13.0" rx="1.5" fill="#24292F"/>
<rect class="day" x="579.0" y="117.0" width="13.0" height="13.0" rx="1.5" fill="#764365"/>
<rect class="day" x="579.0" y="131.5" width="13.0" height="13.0" rx="1.5" fill="#24292F"/>
<rect class="day" x="579.0" y="146.0" width="13.0" height="13.0" rx="1.5" fill="#24292F"/>
<rect class="day" x="579.0" y="160.5" width="13.0" height="13.0" rx="1.5" fill="#24292F"/>
<rect class="day" x="579.0" y="175.0" width="13.0" height="13.0" rx="1.5" fill="#24292F"/>
<rect class="day" x="593.5" y="88.0" width="13.0" height="13.0" rx="1.5" fill="#24292F"/>
<rect class="day" x="593.5" y="102.5" width="13.0" height="13.0" rx="1.5" fill="#24292F"/>
<rect class="day" x="593.5" y="117.0" width="13.0" height="13.0" rx="1.5" fill="#24292F"/>
<rect class="day" x="593.5" y="131.5" width="13.0" height="13.0" rx="1.5" fill="#24292F"/>
<rect class="day" x="593.5" y="146.0" width="13.0" height="13.0" rx="1.5" fill="#24292F"/>
<rect class="day" x="593.5" y="160.5" width="13.0" height="13.0" rx="1.5" fill="#24292F"/>
<rect class="day" x="593.5" y="175.0" width="13.0" height="13.0" rx="1.5" fill="#24292F"/>
<rect class="day" x="608.0" y="88.0" width="13.0" height="13.0" rx="1.5" fill="#24292F"/>
<rect class="day" x="608.0" y="102.5" width="13.0" height="13.0" rx="1.5" fill="#24292F"/>
<rect class="day" x="608.0" y="117.0" width="13.0" height="13.0" rx="1.5" fill="#24292F"/>
<rect class="day" x="608.0" y="131.5" width="13.0" height="13.0" rx="1.5" fill="#24292F"/>
<rect class="day" x="608.0" y="146.0" width="13.0" height="13.0" rx="1.5" fill="#934D7D"/>
<rect class="day" x="608.0" y="160.5" width="13.0" height="13.0" rx="1.5" fill="#764366"/>
<rect class="day" x="608.0" y="175.0" width="13.0" height="13.0" rx="1.5" fill="#884974"/>
<rect class="day" x="622.5" y="88.0" width="13.0" height="13.0" rx="1.5" fill="#7A4469"/>
<rect class="day" x="622.5" y="102.5" width="13.0" height="13.0" rx="1.5" fill="#894975"/>
<rect class="day" x="622.5" y="117.0" width="13.0" height="13.0" rx="1.5" fill="#844871"/>
<rect class="day" x="622.5" y="131.5" width="13.0" height="13.0" rx="1.5" fill="#794468"/>
<rect class="day" x="622.5" y="146.0" width="13.0" height="13.0" rx="1.5" fill="#794468"/>
<rect class="day" x="622.5" y="160.5" width="13.0" height="13.0" rx="1.5" fill="#744264"/>
<rect class="day" x="622.5" y="175.0" width="13.0" height="13.0" rx="1.5" fill="#734264"/>
<rect class="day" x="637.0" y="88.0" width="13.0" height="13.0" rx="1.5" fill="#24292F"/>
<rect class="day" x="637.0" y="102.5" width="13.0" height="13.0" rx="1.5" fill="#24292F"/>
<rect class="day" x="637.0" y="117.0" width="13.0" height="13.0" rx="1.5" fill="#24292F"/>
<rect class="day" x="637.0" y="131.5" width="13.0" height="13.0" rx="1.5" fill="#24292F"/>
<rect class="day" x="637.0" y="146.0" width="13.0" height="13.0" rx="1.5" fill="#24292F"/>
<rect class="day" x="637.0" y="160.5" width="13.0" height="13.0" rx="1.5" fill="#24292F"/>
<rect class="day" x="637.0" y="175.0" width="13.0" height="13.0" rx="1.5" fill="#6B3F5C"/>
<rect class="day" x="651.5" y="88.0" width="13.0" height="13.0" rx="1.5" fill="#24292F"/>
<rect class="day" x="651.5" y="102.5" width="13.0" height="13.0" rx="1.5" fill="#24292F"/>
<rect class="day" x="651.5" y="117.0" width="13.0" height="13.0" rx="1.5" fill="#24292F"/>
<rect class="day" x="651.5" y="131.5" width="13.0" height="13.0" rx="1.5" fill="#24292F"/>
<rect class="day" x="651.5" y="146.0" width="13.0" height="13.0" rx="1.5" fill="#24292F"/>
<rect class="day" x="651.5" y="160.5" width="13.0" height="13.0" rx="1.5" fill="#24292F"/>
<rect class="day" x="651.5" y="175.0" width="13.0" height="13.0" rx="1.5" fill="#784468"/>
<rect class="day" x="666.0" y="88.0" width="13.0" height="13.0" rx="1.5" fill="#7D456B"/>
<rect class="day" x="666.0" y="102.5" width="13.0" height="13.0" rx="1.5" fill="#24292F"/>
<rect class="day" x="666.0" y="117.0" width="13.0" height="13.0" rx="1.5" fill="#714162"/>
<rect class="day" x="666.0" y="131.5" width="13.0" height="13.0" rx="1.5" fill="#693E5B"/>
<rect class="day" x="666.0" y="146.0" width="13.0" height="13.0" rx="1.5" fill="#683E5A"/>
<rect class="day" x="666.0" y="160.5" width="13.0" height="13.0" rx="1.5" fill="#B8619D"/>
<rect class="day" x="666.0" y="175.0" width="13.0" height="13.0" rx="1.5" fill="#B9629E"/>
<rect class="day" x="680.5" y="88.0" width="13.0" height="13.0" rx="1.5" fill="#784467"/>
<rect class="day" x="680.5" y="102.5" width="13.0" height="13.0" rx="1.5" fill="#6F4060"/>
<rect class="day" x="680.5" y="117.0" width="13.0" height="13.0" rx="1.5" fill="#24292F"/>
<rect class="day" x="680.5" y="131.5" width="13.0" height="13.0" rx="1.5" fill="#693E5B"/>
<rect class="day" x="680.5" y="146.0" width="13.0" height="13.0" rx="1.5" fill="#24292F"/>
<rect class="day" x="680.5" y="160.5" width="13.0" height="13.0" rx="1.5" fill="#24292F"/>
<rect class="day" x="680.5" y="175.0" width="13.0" height="13.0" rx="1.5" fill="#A5538C"/>
<rect class="day" x="695.0" y="88.0" width="13.0" height="13.0" rx="1.5" fill="#A4528B"/>
<rect class="day" x="695.0" y="102.5" width="13.0" height="13.0" rx="1.5" fill="#AA5691"/>
<rect class="day" x="695.0" y="117.0" width="13.0" height="13.0" rx="1.5" fill="#A4528B"/>
<rect class="day" x="695.0" y="131.5" width="13.0" height="13.0" rx="1.5" fill="#834770"/>
<rect class="day" x="695.0" y="146.0" width="13.0" height="13.0" rx="1.5" fill="#C86DAC"/>
<rect class="day" x="695.0" y="160.5" width="13.0" height="13.0" rx="1.5" fill="#BC65A1"/>
<rect class="day" x="695.0" y="175.0" width="13.0" height="13.0" rx="1.5" fill="#BA639F"/>
<rect class="day" x="709.5" y="88.0" width="13.0" height="13.0" rx="1.5" fill="#D275B5"/>
<rect class="day" x="709.5" y="102.5" width="13.0" height="13.0" rx="1.5" fill="#774367"/>
<rect class="day" x="709.5" y="117.0" width="13.0" height="13.0" rx="1.5" fill="#24292F"/>
<rect class="day" x="709.5" y="131.5" width="13.0" height="13.0" rx="1.5" fill="#B35D99"/>
<rect class="day" x="709.5" y="146.0" width="13.0" height="13.0" rx="1.5" fill="#24292F"/>
<rect class="day" x="709.5" y="160.5" width="13.0" height="13.0" rx="1.5" fill="#24292F"/>
<rect class="day" x="709.5" y="175.0" width="13.0" height="13.0" rx="1.5" fill="#9D5086"/>
<rect class="day" x="724.0" y="88.0" width="13.0" height="13.0" rx="1.5" fill="#D074B3"/>
<rect class="day" x="724.0" y="102.5" width="13.0" height="13.0" rx="1.5" fill="#EE97D2"/>
<rect class="day" x="724.0" y="117.0" width="13.0" height="13.0" rx="1.5" fill="#F29DD6"/>
<rect class="day" x="724.0" y="131.5" width="13.0" height="13.0" rx="1.5" fill="#D276B5"/>
<rect class="day" x="724.0" y="146.0" width="13.0" height="13.0" rx="1.5" fill="#8F4B7A"/>
<rect class="day" x="724.0" y="160.5" width="13.0" height="13.0" rx="1.5" fill="#BB64A0"/>
<rect class="day" x="724.0" y="175.0" width="13.0" height="13.0" rx="1.5" fill="#BE66A3"/>
<rect class="day" x="738.5" y="88.0" width="13.0" height="13.0" rx="1.5" fill="#BF67A4"/>
<rect class="day" x="738.5" y="102.5" width="13.0" height="13.0" rx="1.5" fill="#D074B3"/>
<rect class="day" x="738.5" y="117.0" width="13.0" height="13.0" rx="1.5" fill="#C269A7"/>
<rect class="day" x="738.5" y="131.5" width="13.0" height="13.0" rx="1.5" fill="#DF83C1"/>
<rect class="day" x="738.5" y="146.0" width="13.0" height="13.0" rx="1.5" fill="#D376B6"/>
<rect class="day" x="738.5" y="160.5" width="13.0" height="13.0" rx="1.5" fill="#9A4F83"/>
<rect class="day" x="738.5" y="175.0" width="13.0" height="13.0" rx="1.5" fill="#BB63A0"/>
<rect class="day" x="753.0" y="88.0" width="13.0" height="13.0" rx="1.5" fill="#C56BA9"/>
<rect class="day" x="753.0" y="102.5" width="13.0" height="13.0" rx="1.5" fill="#BB63A0"/>
<rect class="day" x="753.0" y="117.0" width="13.0" height="13.0" rx="1.5" fill="#AF5B95"/>
<rect class="day" x="753.0" y="131.5" width="13.0" height="13.0" rx="1.5" fill="#C76DAB"/>
<rect class="day" x="753.0" y="146.0" width="13.0" height="13.0" rx="1.5" fill="#D679B9"/>
<rect class="day" x="753.0" y="160.5" width="13.0" height="13.0" rx="1.5" fill="#D074B3"/>
<rect class="day" x="753.0" y="175.0" width="13.0" height="13.0" rx="1.5" fill="#D376B6"/>
<rect class="day" x="767.5" y="88.0" width="13.0" height="13.0" rx="1.5" fill="#D276B5"/>
<rect class="day" x="767.5" y="102.5" width="13.0" height="13.0" rx="1.5" fill="#D276B5"/>
<rect class="day" x="767.5" y="117.0" width="13.0" height="13.0" rx="1.5" fill="#C36AA7"/>
<rect class="day" x="767.5" y="131.5" width="13.0" height="13.0" rx="1.5" fill="#DA7DBC"/>
<rect class="day" x="767.5" y="146.0" width="13.0" height="13.0" rx="1.5" fill="#B25D98"/>
<rect class="day" x="767.5" y="160.5" width="13.0" height="13.0" rx="1.5" fill="#B25D98"/>
<rect class="day" x="767.5" y="175.0" width="13.0" height="13.0" rx="1.5" fill="#B6609C"/>
<rect class="day" x="782.0" y="88.0" width="13.0" height="13.0" rx="1.5" fill="#AE5A95"/>
<rect class="day" x="782.0" y="102.5" width="13.0" height="13.0" rx="1.5" fill="#B25D98"/>
<rect class="day" x="782.0" y="117.0" width="13.0" height="13.0" rx="1.5" fill="#CB70AE"/>
<rect class="day" x="782.0" y="131.5" width="13.0" height="13.0" rx="1.5" fill="#1C2128"/>
<rect class="day" x="782.0" y="146.0" width="13.0" height="13.0" rx="1.5" fill="#1C2128"/>
<rect class="day" x="782.0" y="160.5" width="13.0" height="13.0" rx="1.5" fill="#1C2128"/>
<rect class="day" x="782.0" y="175.0" width="13.0" height="13.0" rx="1.5" fill="#1C2128"/>
</svg>
